<svg width="428" height="144" viewBox="0 0 428 144" fill="none" xmlns="http://www.w3.org/2000/svg">
<path d="M376.661 141.75C372.861 141.75 370.161 139.75 368.561 135.75C367.061 131.75 366.311 125.35 366.311 116.55C366.311 103.55 368.161 91.2 371.861 79.5C372.761 76.6 374.211 74.5 376.211 73.2C378.311 71.8 381.211 71.1 384.911 71.1C386.911 71.1 388.311 71.35 389.111 71.85C389.911 72.35 390.311 73.3 390.311 74.7C390.311 76.3 389.561 79.9 388.061 85.5C387.061 89.5 386.261 93 385.661 96C385.061 99 384.561 102.7 384.161 107.1C387.461 98.5 391.161 91.5 395.261 86.1C399.361 80.7 403.361 76.85 407.261 74.55C411.261 72.25 414.911 71.1 418.211 71.1C421.411 71.1 423.811 71.95 425.411 73.65C427.111 75.25 427.961 77.65 427.961 80.85C427.961 83.45 427.411 88.35 426.311 95.55C425.311 101.65 424.511 107.45 423.911 112.95C423.311 118.35 423.011 124.4 423.011 131.1C423.011 134.9 422.211 137.65 420.611 139.35C419.111 140.95 416.611 141.75 413.111 141.75C409.811 141.75 407.411 140.9 405.911 139.2C404.411 137.5 403.661 134.95 403.661 131.55C403.661 127.55 404.361 120.95 405.761 111.75C406.961 103.75 407.561 98.65 407.561 96.45C407.561 94.85 407.011 94.05 405.911 94.05C404.611 94.05 402.761 95.75 400.361 99.15C398.061 102.45 395.661 106.85 393.161 112.35C390.761 117.85 388.811 123.65 387.311 129.75C386.211 134.45 384.911 137.65 383.411 139.35C382.011 140.95 379.761 141.75 376.661 141.75Z" fill="url(#paint0_linear_22_26)"/>
<path d="M314.002 141.75C307.802 141.75 302.852 139.5 299.152 135C295.452 130.5 293.602 124.6 293.602 117.3C293.602 109.3 295.452 101.75 299.152 94.65C302.852 87.45 307.752 81.7 313.852 77.4C320.052 73 326.602 70.8 333.502 70.8C335.702 70.8 337.152 71.25 337.852 72.15C338.652 72.95 339.302 74.45 339.802 76.65C341.902 76.25 344.102 76.05 346.402 76.05C351.302 76.05 353.752 77.8 353.752 81.3C353.752 83.4 353.002 88.4 351.502 96.3C349.202 107.8 348.052 115.8 348.052 120.3C348.052 121.8 348.402 123 349.102 123.9C349.902 124.8 350.902 125.25 352.102 125.25C354.002 125.25 356.302 124.05 359.002 121.65C361.702 119.15 365.352 115.15 369.952 109.65C371.152 108.25 372.502 107.55 374.002 107.55C375.302 107.55 376.302 108.15 377.002 109.35C377.802 110.55 378.202 112.2 378.202 114.3C378.202 118.3 377.252 121.4 375.352 123.6C371.252 128.7 366.902 133 362.302 136.5C357.702 140 353.252 141.75 348.952 141.75C345.652 141.75 342.602 140.65 339.802 138.45C337.102 136.15 335.052 133.05 333.652 129.15C328.452 137.55 321.902 141.75 314.002 141.75ZM319.402 126.6C321.602 126.6 323.702 125.3 325.702 122.7C327.702 120.1 329.152 116.65 330.052 112.35L335.602 84.75C331.402 84.85 327.502 86.45 323.902 89.55C320.402 92.55 317.602 96.55 315.502 101.55C313.402 106.55 312.352 111.85 312.352 117.45C312.352 120.55 312.952 122.85 314.152 124.35C315.452 125.85 317.202 126.6 319.402 126.6Z" fill="url(#paint1_linear_22_26)"/>
<path d="M243.543 141.75C237.343 141.75 232.393 139.5 228.693 135C224.993 130.5 223.143 124.6 223.143 117.3C223.143 109.3 224.993 101.75 228.693 94.65C232.393 87.45 237.293 81.7 243.393 77.4C249.593 73 256.143 70.8 263.043 70.8C265.243 70.8 266.693 71.25 267.393 72.15C268.193 72.95 268.843 74.45 269.343 76.65C271.443 76.25 273.643 76.05 275.943 76.05C280.843 76.05 283.293 77.8 283.293 81.3C283.293 83.4 282.543 88.4 281.043 96.3C278.743 107.8 277.593 115.8 277.593 120.3C277.593 121.8 277.943 123 278.643 123.9C279.443 124.8 280.443 125.25 281.643 125.25C283.543 125.25 285.843 124.05 288.543 121.65C291.243 119.15 294.893 115.15 299.493 109.65C300.693 108.25 302.043 107.55 303.543 107.55C304.843 107.55 305.843 108.15 306.543 109.35C307.343 110.55 307.743 112.2 307.743 114.3C307.743 118.3 306.793 121.4 304.893 123.6C300.793 128.7 296.443 133 291.843 136.5C287.243 140 282.793 141.75 278.493 141.75C275.193 141.75 272.143 140.65 269.343 138.45C266.643 136.15 264.593 133.05 263.193 129.15C257.993 137.55 251.443 141.75 243.543 141.75ZM248.943 126.6C251.143 126.6 253.243 125.3 255.243 122.7C257.243 120.1 258.693 116.65 259.593 112.35L265.143 84.75C260.943 84.85 257.043 86.45 253.443 89.55C249.943 92.55 247.143 96.55 245.043 101.55C242.943 106.55 241.893 111.85 241.893 117.45C241.893 120.55 242.493 122.85 243.693 124.35C244.993 125.85 246.743 126.6 248.943 126.6Z" fill="url(#paint2_linear_22_26)"/>
<path d="M233.05 107.55C234.35 107.55 235.35 108.15 236.05 109.35C236.85 110.55 237.25 112.2 237.25 114.3C237.25 118.3 236.3 121.4 234.4 123.6C229.8 128.9 225.05 133.25 220.15 136.65C215.35 140.05 209.85 141.75 203.65 141.75C198.55 141.75 194.7 140.3 192.1 137.4C189.5 134.4 188.2 130.1 188.2 124.5C188.2 121.7 188.9 116.7 190.3 109.5C191.6 103.2 192.25 98.85 192.25 96.45C192.25 94.85 191.7 94.05 190.6 94.05C189.3 94.05 187.45 95.75 185.05 99.15C182.65 102.45 180.25 106.85 177.85 112.35C175.45 117.85 173.5 123.65 172 129.75C170.1 137.75 165.4 141.75 157.9 141.75C154.9 141.75 152.9 140.7 151.9 138.6C151 136.4 150.55 132.5 150.55 126.9C150.55 123.7 150.6 121.15 150.7 119.25L150.85 107.25C150.85 91.85 152.4 75.8 155.5 59.1C158.7 42.4 163.35 28.4 169.45 17.1C175.65 5.7 183.05 0 191.65 0C196.25 0 199.95 2 202.75 6C205.65 9.9 207.1 15 207.1 21.3C207.1 31.4 204.15 41.9 198.25 52.8C192.35 63.6 182.75 76.25 169.45 90.75C169.15 95.95 169 101.3 169 106.8C172.3 98.3 175.95 91.4 179.95 86.1C184.05 80.7 188.05 76.85 191.95 74.55C195.95 72.25 199.6 71.1 202.9 71.1C209.4 71.1 212.65 74.35 212.65 80.85C212.65 84.75 211.55 91.8 209.35 102C207.45 110.7 206.5 116.45 206.5 119.25C206.5 123.25 207.95 125.25 210.85 125.25C212.85 125.25 215.2 124.05 217.9 121.65C220.7 119.15 224.4 115.15 229 109.65C230.2 108.25 231.55 107.55 233.05 107.55ZM188.5 14.85C186.7 14.85 184.7 17.45 182.5 22.65C180.3 27.75 178.15 34.7 176.05 43.5C174.05 52.2 172.4 61.7 171.1 72C177.3 64.7 182.4 56.75 186.4 48.15C190.5 39.55 192.55 31.75 192.55 24.75C192.55 21.55 192.2 19.1 191.5 17.4C190.8 15.7 189.8 14.85 188.5 14.85Z" fill="url(#paint3_linear_22_26)"/>
<path d="M157.853 107.55C159.153 107.55 160.153 108.15 160.853 109.35C161.653 110.55 162.053 112.2 162.053 114.3C162.053 118 161.103 121.1 159.203 123.6C154.503 129.7 148.653 134.5 141.653 138C134.753 141.5 126.953 143.25 118.253 143.25C111.453 143.25 105.553 142.25 100.553 140.25C95.5529 138.15 91.7029 135.35 89.0029 131.85C86.4029 128.25 85.1029 124.25 85.1029 119.85C85.1029 113.25 87.7529 107.4 93.0529 102.3C98.3529 97.2 105.953 92.3 115.853 87.6L91.2529 88.2C89.0529 88.3 87.3529 87.55 86.1529 85.95C85.0529 84.25 84.5029 82.25 84.5029 79.95C84.5029 77.55 85.0529 75.45 86.1529 73.65C87.3529 71.75 88.9529 70.8 90.9529 70.8C95.5529 70.8 101.703 71.15 109.403 71.85C111.003 71.95 113.903 72.15 118.103 72.45C122.403 72.75 126.003 72.9 128.903 72.9C129.903 72.9 131.803 72.5 134.603 71.7C135.103 71.6 136.053 71.35 137.453 70.95C138.953 70.55 140.203 70.35 141.203 70.35C142.803 70.35 144.103 71.05 145.103 72.45C146.203 73.85 146.753 76 146.753 78.9C146.753 82.1 146.003 84.6 144.503 86.4C143.003 88.2 140.653 89.8 137.453 91.2C128.353 95.1 120.803 99.3 114.803 103.8C108.803 108.2 105.803 112.6 105.803 117C105.803 119.8 107.103 122.1 109.703 123.9C112.303 125.7 116.153 126.6 121.253 126.6C126.853 126.6 132.503 125.2 138.203 122.4C144.003 119.6 149.203 115.35 153.803 109.65C155.003 108.25 156.353 107.55 157.853 107.55Z" fill="url(#paint4_linear_22_26)"/>
<path d="M77.1002 14.7C79.7002 14.7 81.9002 15.35 83.7002 16.65C85.5002 17.85 86.4002 19.35 86.4002 21.15C86.4002 24.35 85.4002 26.95 83.4002 28.95C81.4002 30.85 78.5502 31.8 74.8502 31.8C69.0502 31.8 64.6502 31.85 61.6502 31.95C61.4502 33.15 60.5502 38.55 58.9502 48.15C57.1502 58.85 56.0502 65.4 55.6502 67.8L52.5002 87.45C50.3002 102.15 48.5502 114.45 47.2502 124.35C49.3502 124.25 52.2002 124.2 55.8002 124.2C61.1002 124.2 64.7002 124.9 66.6002 126.3C68.5002 127.7 69.4502 129.8 69.4502 132.6C69.4502 135.2 68.4002 137.4 66.3002 139.2C64.3002 141 61.4502 141.9 57.7502 141.9C55.2502 141.9 51.3002 141.8 45.9002 141.6C40.9002 141.4 37.6002 141.3 36.0002 141.3C29.7002 141.3 22.8002 141.85 15.3002 142.95C12.0002 143.45 9.6502 143.7 8.2502 143.7C6.0502 143.7 4.2002 143.1 2.7002 141.9C1.2002 140.7 0.450195 138.95 0.450195 136.65C0.450195 133.05 2.0502 130.25 5.2502 128.25C8.4502 126.25 12.9502 125.2 18.7502 125.1L25.8002 124.95L26.2502 121.65C28.6502 105.65 30.4002 94.35 31.5002 87.75L34.8002 68.1C36.8002 56.5 38.6002 44.55 40.2002 32.25L27.6002 32.4C24.0002 32.4 21.5002 31.85 20.1002 30.75C18.8002 29.55 18.1502 27.9 18.1502 25.8C18.1502 19 23.0502 15.35 32.8502 14.85C37.4502 14.65 43.0502 14.55 49.6502 14.55L77.1002 14.7Z" fill="url(#paint5_linear_22_26)"/>
<defs>
<linearGradient id="paint0_linear_22_26" x1="-6.62538e-06" y1="1.40814e-05" x2="428" y2="144" gradientUnits="userSpaceOnUse">
<stop stop-color="#FF4646"/>
<stop offset="1" stop-color="#546FFF"/>
</linearGradient>
<linearGradient id="paint1_linear_22_26" x1="-6.62538e-06" y1="1.40814e-05" x2="428" y2="144" gradientUnits="userSpaceOnUse">
<stop stop-color="#FF4646"/>
<stop offset="1" stop-color="#546FFF"/>
</linearGradient>
<linearGradient id="paint2_linear_22_26" x1="-6.62538e-06" y1="1.40814e-05" x2="428" y2="144" gradientUnits="userSpaceOnUse">
<stop stop-color="#FF4646"/>
<stop offset="1" stop-color="#546FFF"/>
</linearGradient>
<linearGradient id="paint3_linear_22_26" x1="-6.62538e-06" y1="1.40814e-05" x2="428" y2="144" gradientUnits="userSpaceOnUse">
<stop stop-color="#FF4646"/>
<stop offset="1" stop-color="#546FFF"/>
</linearGradient>
<linearGradient id="paint4_linear_22_26" x1="-6.62538e-06" y1="1.40814e-05" x2="428" y2="144" gradientUnits="userSpaceOnUse">
<stop stop-color="#FF4646"/>
<stop offset="1" stop-color="#546FFF"/>
</linearGradient>
<linearGradient id="paint5_linear_22_26" x1="-6.62538e-06" y1="1.40814e-05" x2="428" y2="144" gradientUnits="userSpaceOnUse">
<stop stop-color="#FF4646"/>
<stop offset="1" stop-color="#546FFF"/>
</linearGradient>
</defs>
</svg>
